# xmcd
#
# Track frame offsets:
#	150
#	3139
#	23887
#	26332
#	40285
#	52347
#	61480
#	63812
#	85322
#	108958
#	112000
#	128618
#	133645
#	155920
#	177825
#	194780
#
# Disc length: 2689 seconds
#
# Revision: 2
# Processed by: cddbd v1.5.2PL0 Copyright (c) Steve Scherf et al.
# Submitted via: audiograbber 1.83.01
#
DISCID=dc0a7f10
DTITLE=Mr. Doctor - Setripn' Bloccstyle
DYEAR=1995
DGENRE=Rap
TTITLE0=Mr. Doctor - Setripn'
TTITLE1=Mr. Doctor, Brotha Lynch Hung - Bloccstyle
TTITLE2=Mr. Doctor - Plot Murder
TTITLE3=Mr. Doctor - Fill 'Em Up
TTITLE4=Mr. Doctor, Babe Reg, Brotha Lynch Hung - Fucc Yo Side
TTITLE5=Mr. Doctor - Rollin' Wit GBC
TTITLE6=Mr. Doctor - It's All Da Way On
TTITLE7=Mr. Doctor - Killa Cap Pilla
TTITLE8=Mr. Doctor, Big Zo - No Bitch
TTITLE9=Mr. Doctor - Misty Blue Tribute
TTITLE10=Mr. Doctor, Brotha Lynch Hung, Foe Loco - 40 Oz and Chronic Dice
TTITLE11=Mr. Doctor - She Fucc Everybody
TTITLE12=Mr. Doctor, Brotha Lynch Hung - Treat 'Em Like Hoez
TTITLE13=Mr. Doctor, Brotha Lynch Hung - Da Real Deal
TTITLE14=Mr. Doctor, DJ Kat, Loki - Largest Way 2 Represent
TTITLE15=Mr. Doctor - 5000 "C'z"
EXTD=www.RapMusicGuide.com
EXTT0=
EXTT1=
EXTT2=
EXTT3=
EXTT4=
EXTT5=
EXTT6=
EXTT7=
EXTT8=
EXTT9=
EXTT10=
EXTT11=
EXTT12=
EXTT13=
EXTT14=
EXTT15=
PLAYORDER=
